<?xml version="1.0" encoding="UTF-8" standalone="no"?>
<!-- Created with Inkscape (http://www.inkscape.org/) -->

<svg
   width="297mm"
   height="210mm"
   viewBox="0 0 297 210"
   version="1.1"
   id="svg1"
   inkscape:version="1.3.1 (91b66b0783, 2023-11-16)"
   sodipodi:docname="capstone_logo_path.svg"
   xmlns:inkscape="http://www.inkscape.org/namespaces/inkscape"
   xmlns:sodipodi="http://sodipodi.sourceforge.net/DTD/sodipodi-0.dtd"
   xmlns="http://www.w3.org/2000/svg"
   xmlns:svg="http://www.w3.org/2000/svg">
  <sodipodi:namedview
     id="namedview1"
     pagecolor="#ffffff"
     bordercolor="#000000"
     borderopacity="0.25"
     inkscape:showpageshadow="2"
     inkscape:pageopacity="0.0"
     inkscape:pagecheckerboard="0"
     inkscape:deskcolor="#d1d1d1"
     inkscape:document-units="mm"
     inkscape:zoom="0.80087682"
     inkscape:cx="334.63323"
     inkscape:cy="475.10427"
     inkscape:window-width="1920"
     inkscape:window-height="1137"
     inkscape:window-x="-8"
     inkscape:window-y="-8"
     inkscape:window-maximized="1"
     inkscape:current-layer="layer1"
     showgrid="false" />
  <defs
     id="defs1" />
  <g
     inkscape:label="Layer 1"
     inkscape:groupmode="layer"
     id="layer1">
    <path
       id="rect2"
       style="fill:#636363;fill-opacity:1;stroke:none;stroke-width:1.2068;stroke-dasharray:none"
       d="m 114.76719,27.226128 h 70.07153 c 5.28159,0 11.14484,3.762365 9.53355,7.96418 L 175.28428,84.96644 c -1.6113,4.201816 -4.25196,7.964181 -9.53355,7.964181 h -31.89555 c -5.28158,0 -7.92225,-3.762365 -9.53354,-7.964181 l -19.088,-49.776132 c -1.61129,-4.201815 4.25197,-7.96418 9.53355,-7.96418 z"
       sodipodi:nodetypes="sssssssss" />
    <g
       id="g4"
       transform="matrix(1.2067982,0,0,1.2067982,-22.828247,-24.642482)"
       style="stroke:none;stroke-opacity:1;fill:#d8d8d8;fill-opacity:1">
      <path
         id="path2"
         style="fill:#d8d8d8;fill-opacity:1;stroke:none;stroke-width:1;stroke-dasharray:none;stroke-opacity:1"
         d="m 187.88332,52.634785 29.36008,20.919871 c 2.213,1.576821 2.98436,5.692594 0.42703,7.853111 l -30.29497,25.594193 c -2.55732,2.16052 -5.34909,3.73744 -7.56209,2.16062 l -13.36428,-9.522422 c -2.21299,-1.576815 -1.63411,-4.730481 -0.42704,-7.853101 l 14.29917,-36.991641 c 1.20706,-3.122626 5.34912,-3.737447 7.5621,-2.160631 z"
         sodipodi:nodetypes="sssssssss" />
      <path
         id="path3"
         style="fill:#d8d8d8;fill-opacity:1;stroke:none;stroke-width:1;stroke-dasharray:none;stroke-opacity:1"
         d="m 226.46212,84.597579 15.81679,32.395751 c 1.19219,2.44181 -0.0942,6.42675 -3.37261,7.10486 l -38.83703,8.03322 c -3.2784,0.67812 -6.48431,0.73151 -7.67649,-1.7103 l -7.19957,-14.74607 c -1.19217,-2.4418 0.82159,-4.93688 3.3726,-7.10487 l 30.21982,-25.682883 c 2.55099,-2.168002 6.48433,-0.731503 7.67649,1.710292 z"
         sodipodi:nodetypes="sssssssss" />
      <path
         id="path4"
         style="fill:#d8d8d8;fill-opacity:1;stroke:none;stroke-width:1;stroke-dasharray:none;stroke-opacity:1"
         d="m 245.6753,130.9849 -1.61834,36.01439 c -0.12198,2.71456 -3.01403,4.61455 -6.36183,4.62392 l -37.94444,0.10624 c -3.34779,0.009 -5.99285,-2.45953 -5.92147,-5.1759 l 0.73665,-28.0349 c 0.0714,-2.71634 3.08432,-3.94141 6.36182,-4.62392 l 38.82614,-8.08573 c 3.27748,-0.68255 6.04346,2.46135 5.92147,5.1759 z"
         sodipodi:nodetypes="sssssssss" />
    </g>
    <g
       id="g7"
       transform="matrix(-1.2067982,0,0,1.2067982,322.65012,-24.642482)"
       style="stroke:none;stroke-opacity:1;fill:#d8d8d8;fill-opacity:1">
      <path
         id="path5"
         style="fill:#d8d8d8;fill-opacity:1;stroke:none;stroke-width:1;stroke-dasharray:none;stroke-opacity:1"
         d="m 187.88332,52.634785 29.36008,20.919871 c 2.213,1.576821 2.98436,5.692594 0.42703,7.853111 l -30.29497,25.594193 c -2.55732,2.16052 -5.34909,3.73744 -7.56209,2.16062 l -13.36428,-9.522422 c -2.21299,-1.576815 -1.63411,-4.730481 -0.42704,-7.853101 l 14.29917,-36.991641 c 1.20706,-3.122626 5.34912,-3.737447 7.5621,-2.160631 z"
         sodipodi:nodetypes="sssssssss" />
      <path
         id="path6"
         style="fill:#d8d8d8;fill-opacity:1;stroke:none;stroke-width:1;stroke-dasharray:none;stroke-opacity:1"
         d="m 226.46212,84.597579 15.81679,32.395751 c 1.19219,2.44181 -0.0942,6.42675 -3.37261,7.10486 l -38.83703,8.03322 c -3.2784,0.67812 -6.48431,0.73151 -7.67649,-1.7103 l -7.19957,-14.74607 c -1.19217,-2.4418 0.82159,-4.93688 3.3726,-7.10487 l 30.21982,-25.682883 c 2.55099,-2.168002 6.48433,-0.731503 7.67649,1.710292 z"
         sodipodi:nodetypes="sssssssss" />
      <path
         id="path7"
         style="fill:#d8d8d8;fill-opacity:1;stroke:none;stroke-width:1;stroke-dasharray:none;stroke-opacity:1"
         d="m 245.6753,130.9849 -1.61834,36.01439 c -0.12198,2.71456 -3.01403,4.61455 -6.36183,4.62392 l -37.94444,0.10624 c -3.34779,0.009 -5.99285,-2.45953 -5.92147,-5.1759 l 0.73665,-28.0349 c 0.0714,-2.71634 3.08432,-3.94141 6.36182,-4.62392 l 38.82614,-8.08573 c 3.27748,-0.68255 6.04346,2.46135 5.92147,5.1759 z"
         sodipodi:nodetypes="sssssssss" />
    </g>
    <path
       d="m 76.300184,101.62748 -2.509225,1.92518 q -2.0766,-2.70391 -4.996819,-4.088305 -2.898587,-1.406031 -6.381218,-1.406031 -3.8071,0 -7.051788,1.838656 -3.244687,1.81702 -5.040081,4.91029 -1.773763,3.07164 -1.773763,6.922 0,5.81881 3.98015,9.71243 4.001782,3.89363 10.080163,3.89363 6.684056,0 11.183356,-5.23476 l 2.509225,1.90355 q -2.379437,3.02837 -5.948594,4.69398 -3.547525,1.64397 -7.938668,1.64397 -8.349663,0 -13.173432,-5.55923 -4.045044,-4.69398 -4.045044,-11.33477 0,-6.9869 4.888663,-11.745771 4.910294,-4.780507 12.28655,-4.780507 4.456038,0 8.046825,1.773763 3.590788,1.752131 5.8837,4.931925 z m 29.331976,2.37944 v 23.5348 h -2.98511 v -4.04505 q -1.90355,2.31455 -4.282989,3.48264 -2.357806,1.16808 -5.169869,1.16808 -4.996819,0 -8.544344,-3.61242 -3.525893,-3.63405 -3.525893,-8.82555 0,-5.08334 3.569156,-8.69576 3.569156,-3.61242 8.587606,-3.61242 2.898588,0 5.234763,1.23298 2.35781,1.23298 4.13157,3.69895 v -4.32625 z m -12.113499,2.31454 q -2.530856,0 -4.67235,1.25461 -2.141494,1.23298 -3.417738,3.48263 -1.254612,2.24965 -1.254612,4.75888 0,2.48759 1.276244,4.75887 1.276243,2.27129 3.417737,3.54753 2.163125,1.25461 4.629088,1.25461 2.487593,0 4.715612,-1.25461 2.228018,-1.25461 3.417738,-3.39611 1.21135,-2.14149 1.21135,-4.82377 0,-4.0883 -2.70391,-6.83547 -2.682272,-2.74717 -6.619159,-2.74717 z m 18.970609,-2.31454 h 3.00674 v 4.32625 q 1.7954,-2.46597 4.13157,-3.69895 2.33618,-1.23298 5.21313,-1.23298 5.01845,0 8.58761,3.61242 3.56915,3.61242 3.56915,8.69576 0,5.1915 -3.54752,8.82555 -3.52589,3.61242 -8.52271,3.61242 -2.81207,0 -5.16987,-1.16808 -2.35781,-1.16809 -4.26136,-3.48264 v 12.65429 h -3.00674 z m 12.1135,2.31454 q -3.93689,0 -6.6408,2.74717 -2.68227,2.74717 -2.68227,6.83547 0,2.68228 1.18972,4.82377 1.21135,2.1415 3.43937,3.39611 2.24965,1.25461 4.73724,1.25461 2.44433,0 4.58583,-1.25461 2.16312,-1.27624 3.43936,-3.54753 1.27625,-2.27128 1.27625,-4.75887 0,-2.50923 -1.27625,-4.75888 -1.25461,-2.24965 -3.3961,-3.48263 -2.1415,-1.25461 -4.67235,-1.25461 z m 29.89439,0.25958 -1.94682,2.0117 q -2.4227,-2.3578 -4.73724,-2.3578 -1.47093,0 -2.53086,0.9734 -1.0383,0.97341 -1.0383,2.27128 0,1.14646 0.86525,2.18476 0.86525,1.05993 3.63405,2.48759 3.37448,1.75213 4.58583,3.37448 1.18972,1.64397 1.18972,3.69894 0,2.89859 -2.03334,4.9103 -2.03334,2.0117 -5.08334,2.0117 -2.03334,0 -3.89363,-0.88688 -1.83866,-0.88688 -3.05001,-2.44433 l 1.90355,-2.16313 q 2.31455,2.61739 4.9103,2.61739 1.81702,0 3.09327,-1.16809 1.27624,-1.16809 1.27624,-2.74717 0,-1.29788 -0.84362,-2.31454 -0.84362,-0.99504 -3.8071,-2.50923 -3.17979,-1.64397 -4.32625,-3.24469 -1.14645,-1.60071 -1.14645,-3.65568 0,-2.68227 1.81702,-4.45604 1.83866,-1.77376 4.62909,-1.77376 3.24469,0 6.53264,3.1798 z m 8.00356,-11.313148 h 3.05001 v 8.739028 h 4.80213 v 2.59575 h -4.80213 v 20.93905 h -3.05001 v -20.93905 h -4.13157 v -2.59575 h 4.13157 z m 23.51317,8.133348 q 5.42945,0 8.9986,3.93689 3.24469,3.59079 3.24469,8.50108 0,4.93193 -3.43937,8.63087 -3.41773,3.67731 -8.80392,3.67731 -5.40781,0 -8.84718,-3.67731 -3.41773,-3.69894 -3.41773,-8.63087 0,-4.88866 3.24468,-8.47945 3.56916,-3.95852 9.02023,-3.95852 z m 0,2.96348 q -3.76383,0 -6.46774,2.79043 -2.70391,2.79044 -2.70391,6.74895 0,2.55249 1.23299,4.75888 1.23298,2.20639 3.33121,3.41774 2.09823,1.18972 4.60745,1.18972 2.50923,0 4.60746,-1.18972 2.09823,-1.21135 3.33121,-3.41774 1.23298,-2.20639 1.23298,-4.75888 0,-3.95851 -2.72553,-6.74895 -2.70391,-2.79043 -6.44612,-2.79043 z m 17.86742,-2.3578 h 3.02837 v 4.21809 q 1.81703,-2.4227 4.02342,-3.61242 2.20638,-1.21135 4.80213,-1.21135 2.63902,0 4.67235,1.34114 2.05497,1.34114 3.02838,3.61242 0.9734,2.27128 0.9734,7.07342 v 12.1135 h -3.00674 V 116.3151 q 0,-4.06668 -0.3461,-5.42945 -0.54078,-2.33617 -2.03334,-3.50426 -1.49255,-1.18972 -3.89362,-1.18972 -2.74717,0 -4.93193,1.81703 -2.16312,1.81702 -2.85532,4.4993 -0.43263,1.75213 -0.43263,6.40285 v 8.63087 h -3.02837 z m 46.83165,15.72592 2.55249,1.34113 q -1.25462,2.46597 -2.89859,3.98015 -1.64398,1.51419 -3.69895,2.31455 -2.05496,0.77872 -4.65071,0.77872 -5.75392,0 -8.9986,-3.76383 -3.24469,-3.78547 -3.24469,-8.54435 0,-4.47767 2.74717,-7.98193 3.48263,-4.45604 9.32307,-4.45604 6.01348,0 9.60427,4.5642 2.55249,3.22305 2.59575,8.04682 h -21.15536 q 0.0865,4.10994 2.61738,6.74895 2.53086,2.61738 6.25143,2.61738 1.79539,0 3.48263,-0.6273 1.70887,-0.62731 2.89859,-1.66561 1.18972,-1.0383 2.57412,-3.35284 z m 0,-6.33796 q -0.60568,-2.4227 -1.77376,-3.87199 -1.14646,-1.4493 -3.05001,-2.33618 -1.90355,-0.88688 -4.00178,-0.88688 -3.461,0 -5.9486,2.22802 -1.81702,1.62234 -2.74716,4.86703 z"
       id="text8"
       style="font-size:44.3008px;font-family:'Century Gothic';-inkscape-font-specification:'Century Gothic, Normal';text-align:center;text-anchor:middle;stroke-width:13.9529"
       aria-label="Capstone" />
    <g
       id="text11"
       style="font-size:44.3008px;font-family:'Century Gothic';-inkscape-font-specification:'Century Gothic, Normal';text-align:center;text-anchor:middle;stroke-width:13.9529"
       aria-label="&#10;cluster">
      <path
         d="m 115.17234,156.42768 -1.91203,1.18855 q -2.48047,-3.29006 -6.76962,-3.29006 -3.42787,0 -5.70164,2.20486 -2.256536,2.20486 -2.256536,5.35713 0,2.04983 1.03353,3.85851 1.050756,1.80867 2.859426,2.80775 1.82591,0.99908 4.08245,0.99908 4.13411,0 6.75239,-3.29007 l 1.91203,1.25746 q -1.34359,2.01538 -3.61736,3.13504 -2.25653,1.10243 -5.15042,1.10243 -4.44417,0 -7.372506,-2.82498 -2.928334,-2.82498 -2.928334,-6.87297 0,-2.72163 1.360814,-5.04707 1.378039,-2.34266 3.772386,-3.6518 2.39434,-1.30914 5.35712,-1.30914 1.86036,0 3.5829,0.56844 1.73978,0.56844 2.94556,1.4814 1.20579,0.91295 2.04984,2.32544 z"
         id="path1" />
      <path
         style="font-size:35.2778px"
         d="m 119.44426,145.30001 h 2.41157 v 25.97604 h -2.41157 z m 7.11412,7.23471 h 2.4288 v 8.75054 q 0,3.20395 0.34451,4.40973 0.51676,1.72255 1.9637,2.72163 1.46417,0.99907 3.47955,0.99907 2.01538,0 3.41065,-0.96462 1.41249,-0.98186 1.94648,-2.5666 0.36174,-1.08521 0.36174,-4.59921 v -8.75054 h 2.46324 v 9.19841 q 0,3.87573 -0.91295,5.83944 -0.89573,1.9637 -2.72163,3.08336 -1.80867,1.10243 -4.54753,1.10243 -2.73885,0 -4.58198,-1.10243 -1.8259,-1.11966 -2.73885,-3.10059 -0.89573,-1.99815 -0.89573,-5.99447 z m 31.17814,2.04983 -1.5503,1.60197 q -1.92925,-1.87758 -3.77238,-1.87758 -1.17133,0 -2.01538,0.77515 -0.82682,0.77515 -0.82682,1.80867 0,0.91296 0.68902,1.73978 0.68902,0.84405 2.89388,1.98093 2.68717,1.39526 3.6518,2.68718 0.9474,1.30913 0.9474,2.94555 0,2.30822 -1.61919,3.91019 -1.6192,1.60197 -4.04799,1.60197 -1.6192,0 -3.10059,-0.70624 -1.46417,-0.70625 -2.42879,-1.94648 l 1.51584,-1.72255 q 1.84313,2.08428 3.91018,2.08428 1.44695,0 2.46325,-0.93018 1.0163,-0.93017 1.0163,-2.18763 0,-1.03353 -0.67179,-1.84313 -0.67179,-0.79237 -3.03169,-1.99816 -2.53214,-1.30913 -3.44509,-2.58382 -0.91296,-1.27469 -0.91296,-2.91111 0,-2.13596 1.44695,-3.54845 1.46416,-1.41249 3.68625,-1.41249 2.58382,0 5.2021,2.53215 z m 6.37343,-9.00893 h 2.4288 v 6.9591 h 3.82405 v 2.06705 h -3.82405 v 16.67428 h -2.4288 v -16.67428 h -3.29007 v -2.06705 h 3.29007 z m 25.63153,19.48203 2.03261,1.06798 q -0.99908,1.9637 -2.30822,3.16949 -1.30913,1.20578 -2.94556,1.84312 -1.63642,0.62012 -3.70348,0.62012 -4.58198,0 -7.1658,-2.99723 -2.58382,-3.01446 -2.58382,-6.80407 0,-3.56568 2.18763,-6.35621 2.77331,-3.54845 7.42419,-3.54845 4.78869,0 7.64812,3.63458 2.03261,2.5666 2.06706,6.40788 h -16.84653 q 0.0689,3.27284 2.08428,5.37435 2.01538,2.08429 4.97817,2.08429 1.42971,0 2.7733,-0.49954 1.36082,-0.49954 2.30822,-1.32636 0.9474,-0.82683 2.04983,-2.66995 z m 0,-5.04707 q -0.48231,-1.92926 -1.41249,-3.08336 -0.91295,-1.15411 -2.42879,-1.86036 -1.51585,-0.70624 -3.18672,-0.70624 -2.75608,0 -4.73701,1.77422 -1.44694,1.29191 -2.18763,3.87574 z m 6.23563,-7.47586 h 2.46324 v 2.73885 q 1.10243,-1.6192 2.32544,-2.41157 1.22301,-0.8096 2.54937,-0.8096 0.99908,0 2.13597,0.63735 l -1.25747,2.0326 q -0.75792,-0.32728 -1.27468,-0.32728 -1.20579,0 -2.32544,0.99908 -1.11966,0.98185 -1.70533,3.06613 -0.44786,1.60197 -0.44786,6.47679 v 6.33898 h -2.46324 z"
         id="path8" />
    </g>
    <g
       id="g15"
       transform="translate(-0.18369249,6.3500003)"
       style="fill:#d8d8d8;fill-opacity:1">
      <text
         xml:space="preserve"
         style="font-style:normal;font-variant:normal;font-weight:normal;font-stretch:normal;font-size:30.4535px;font-family:Consolas;-inkscape-font-specification:'Consolas, Normal';font-variant-ligatures:normal;font-variant-caps:normal;font-variant-numeric:normal;font-variant-east-asian:normal;text-align:center;text-anchor:middle;fill:#d8d8d8;fill-opacity:1;stroke:none;stroke-width:0.863251;stroke-dasharray:none;stroke-opacity:1"
         x="149.98665"
         y="56.200089"
         id="text12"><tspan
           sodipodi:role="line"
           id="tspan12"
           style="stroke-width:0.863251;fill:#d8d8d8;fill-opacity:1"
           x="149.98665"
           y="56.200089">&lt;  &gt;</tspan></text>
      <g
         id="g14"
         transform="translate(-0.26457303)"
         style="fill:#d8d8d8;fill-opacity:1">
        <circle
           style="fill:#d8d8d8;fill-opacity:1;stroke:none;stroke-width:1.40945;stroke-dasharray:none;stroke-opacity:1"
           id="path12"
           cx="135.65234"
           cy="47.772179"
           r="1.810897" />
        <circle
           style="fill:#d8d8d8;fill-opacity:1;stroke:none;stroke-width:1.40945;stroke-dasharray:none;stroke-opacity:1"
           id="circle12"
           cx="150.25122"
           cy="47.772179"
           r="1.810897" />
        <circle
           style="fill:#d8d8d8;fill-opacity:1;stroke:none;stroke-width:1.40945;stroke-dasharray:none;stroke-opacity:1"
           id="circle13"
           cx="164.8501"
           cy="47.772179"
           r="1.810897" />
      </g>
    </g>
  </g>
</svg>
