<?xml version="1.0" encoding="UTF-8" standalone="no"?>
<!-- Created with Inkscape (http://www.inkscape.org/) -->

<svg
   width="297mm"
   height="210mm"
   viewBox="0 0 297 210"
   version="1.1"
   id="svg1"
   inkscape:version="1.3.1 (91b66b0783, 2023-11-16)"
   sodipodi:docname="capstone_logo.svg"
   xmlns:inkscape="http://www.inkscape.org/namespaces/inkscape"
   xmlns:sodipodi="http://sodipodi.sourceforge.net/DTD/sodipodi-0.dtd"
   xmlns="http://www.w3.org/2000/svg"
   xmlns:svg="http://www.w3.org/2000/svg">
  <sodipodi:namedview
     id="namedview1"
     pagecolor="#ffffff"
     bordercolor="#000000"
     borderopacity="0.25"
     inkscape:showpageshadow="2"
     inkscape:pageopacity="0.0"
     inkscape:pagecheckerboard="0"
     inkscape:deskcolor="#d1d1d1"
     inkscape:document-units="mm"
     inkscape:zoom="0.80087682"
     inkscape:cx="334.63323"
     inkscape:cy="475.10427"
     inkscape:window-width="1920"
     inkscape:window-height="1137"
     inkscape:window-x="-8"
     inkscape:window-y="-8"
     inkscape:window-maximized="1"
     inkscape:current-layer="layer1" />
  <defs
     id="defs1" />
  <g
     inkscape:label="Layer 1"
     inkscape:groupmode="layer"
     id="layer1">
    <path
       id="rect2"
       style="fill:#636363;fill-opacity:1;stroke:none;stroke-width:1.2068;stroke-dasharray:none"
       d="m 114.76719,27.226128 h 70.07153 c 5.28159,0 11.14484,3.762365 9.53355,7.96418 L 175.28428,84.96644 c -1.6113,4.201816 -4.25196,7.964181 -9.53355,7.964181 h -31.89555 c -5.28158,0 -7.92225,-3.762365 -9.53354,-7.964181 l -19.088,-49.776132 c -1.61129,-4.201815 4.25197,-7.96418 9.53355,-7.96418 z"
       sodipodi:nodetypes="sssssssss" />
    <g
       id="g4"
       transform="matrix(1.2067982,0,0,1.2067982,-22.828247,-24.642482)"
       style="stroke:none;stroke-opacity:1;fill:#d8d8d8;fill-opacity:1">
      <path
         id="path2"
         style="fill:#d8d8d8;fill-opacity:1;stroke:none;stroke-width:1;stroke-dasharray:none;stroke-opacity:1"
         d="m 187.88332,52.634785 29.36008,20.919871 c 2.213,1.576821 2.98436,5.692594 0.42703,7.853111 l -30.29497,25.594193 c -2.55732,2.16052 -5.34909,3.73744 -7.56209,2.16062 l -13.36428,-9.522422 c -2.21299,-1.576815 -1.63411,-4.730481 -0.42704,-7.853101 l 14.29917,-36.991641 c 1.20706,-3.122626 5.34912,-3.737447 7.5621,-2.160631 z"
         sodipodi:nodetypes="sssssssss" />
      <path
         id="path3"
         style="fill:#d8d8d8;fill-opacity:1;stroke:none;stroke-width:1;stroke-dasharray:none;stroke-opacity:1"
         d="m 226.46212,84.597579 15.81679,32.395751 c 1.19219,2.44181 -0.0942,6.42675 -3.37261,7.10486 l -38.83703,8.03322 c -3.2784,0.67812 -6.48431,0.73151 -7.67649,-1.7103 l -7.19957,-14.74607 c -1.19217,-2.4418 0.82159,-4.93688 3.3726,-7.10487 l 30.21982,-25.682883 c 2.55099,-2.168002 6.48433,-0.731503 7.67649,1.710292 z"
         sodipodi:nodetypes="sssssssss" />
      <path
         id="path4"
         style="fill:#d8d8d8;fill-opacity:1;stroke:none;stroke-width:1;stroke-dasharray:none;stroke-opacity:1"
         d="m 245.6753,130.9849 -1.61834,36.01439 c -0.12198,2.71456 -3.01403,4.61455 -6.36183,4.62392 l -37.94444,0.10624 c -3.34779,0.009 -5.99285,-2.45953 -5.92147,-5.1759 l 0.73665,-28.0349 c 0.0714,-2.71634 3.08432,-3.94141 6.36182,-4.62392 l 38.82614,-8.08573 c 3.27748,-0.68255 6.04346,2.46135 5.92147,5.1759 z"
         sodipodi:nodetypes="sssssssss" />
    </g>
    <g
       id="g7"
       transform="matrix(-1.2067982,0,0,1.2067982,322.65012,-24.642482)"
       style="stroke:none;stroke-opacity:1;fill:#d8d8d8;fill-opacity:1">
      <path
         id="path5"
         style="fill:#d8d8d8;fill-opacity:1;stroke:none;stroke-width:1;stroke-dasharray:none;stroke-opacity:1"
         d="m 187.88332,52.634785 29.36008,20.919871 c 2.213,1.576821 2.98436,5.692594 0.42703,7.853111 l -30.29497,25.594193 c -2.55732,2.16052 -5.34909,3.73744 -7.56209,2.16062 l -13.36428,-9.522422 c -2.21299,-1.576815 -1.63411,-4.730481 -0.42704,-7.853101 l 14.29917,-36.991641 c 1.20706,-3.122626 5.34912,-3.737447 7.5621,-2.160631 z"
         sodipodi:nodetypes="sssssssss" />
      <path
         id="path6"
         style="fill:#d8d8d8;fill-opacity:1;stroke:none;stroke-width:1;stroke-dasharray:none;stroke-opacity:1"
         d="m 226.46212,84.597579 15.81679,32.395751 c 1.19219,2.44181 -0.0942,6.42675 -3.37261,7.10486 l -38.83703,8.03322 c -3.2784,0.67812 -6.48431,0.73151 -7.67649,-1.7103 l -7.19957,-14.74607 c -1.19217,-2.4418 0.82159,-4.93688 3.3726,-7.10487 l 30.21982,-25.682883 c 2.55099,-2.168002 6.48433,-0.731503 7.67649,1.710292 z"
         sodipodi:nodetypes="sssssssss" />
      <path
         id="path7"
         style="fill:#d8d8d8;fill-opacity:1;stroke:none;stroke-width:1;stroke-dasharray:none;stroke-opacity:1"
         d="m 245.6753,130.9849 -1.61834,36.01439 c -0.12198,2.71456 -3.01403,4.61455 -6.36183,4.62392 l -37.94444,0.10624 c -3.34779,0.009 -5.99285,-2.45953 -5.92147,-5.1759 l 0.73665,-28.0349 c 0.0714,-2.71634 3.08432,-3.94141 6.36182,-4.62392 l 38.82614,-8.08573 c 3.27748,-0.68255 6.04346,2.46135 5.92147,5.1759 z"
         sodipodi:nodetypes="sssssssss" />
    </g>
    <text
       xml:space="preserve"
       style="font-style:normal;font-variant:normal;font-weight:normal;font-stretch:normal;font-size:44.3008px;font-family:'Century Gothic';-inkscape-font-specification:'Century Gothic, Normal';font-variant-ligatures:normal;font-variant-caps:normal;font-variant-numeric:normal;font-variant-east-asian:normal;text-align:center;text-anchor:middle;fill:#000000;fill-opacity:1;stroke:none;stroke-width:13.9529;stroke-dasharray:none"
       x="149.55441"
       y="127.54172"
       id="text8"><tspan
         sodipodi:role="line"
         style="font-style:normal;font-variant:normal;font-weight:normal;font-stretch:normal;font-size:44.3008px;font-family:'Century Gothic';-inkscape-font-specification:'Century Gothic, Normal';font-variant-ligatures:normal;font-variant-caps:normal;font-variant-numeric:normal;font-variant-east-asian:normal;text-align:center;text-anchor:middle;fill:#000000;fill-opacity:1;stroke:none;stroke-width:13.9529"
         x="149.55441"
         y="127.54172"
         id="tspan9">Capstone</tspan></text>
    <text
       xml:space="preserve"
       style="font-style:normal;font-variant:normal;font-weight:normal;font-stretch:normal;font-size:44.3008px;font-family:'Century Gothic';-inkscape-font-specification:'Century Gothic, Normal';font-variant-ligatures:normal;font-variant-caps:normal;font-variant-numeric:normal;font-variant-east-asian:normal;text-align:center;text-anchor:middle;fill:#000000;fill-opacity:1;stroke:none;stroke-width:13.9529;stroke-dasharray:none"
       x="149.55441"
       y="115.90005"
       id="text11"><tspan
         sodipodi:role="line"
         id="tspan10"
         style="font-style:normal;font-variant:normal;font-weight:normal;font-stretch:normal;font-size:44.3008px;font-family:'Century Gothic';-inkscape-font-specification:'Century Gothic, Normal';font-variant-ligatures:normal;font-variant-caps:normal;font-variant-numeric:normal;font-variant-east-asian:normal;text-align:center;text-anchor:middle;fill:#000000;fill-opacity:1;stroke:none;stroke-width:13.9529"
         x="149.55441"
         y="115.90005" /><tspan
         sodipodi:role="line"
         style="font-style:normal;font-variant:normal;font-weight:normal;font-stretch:normal;font-size:35.2778px;font-family:'Century Gothic';-inkscape-font-specification:'Century Gothic, Normal';font-variant-ligatures:normal;font-variant-caps:normal;font-variant-numeric:normal;font-variant-east-asian:normal;text-align:center;text-anchor:middle;fill:#000000;fill-opacity:1;stroke:none;stroke-width:13.9529"
         x="149.55441"
         y="171.27605"
         id="tspan11">cluster</tspan></text>
    <g
       id="g15"
       transform="translate(-0.18369249,6.3500003)"
       style="fill:#d8d8d8;fill-opacity:1">
      <text
         xml:space="preserve"
         style="font-style:normal;font-variant:normal;font-weight:normal;font-stretch:normal;font-size:30.4535px;font-family:Consolas;-inkscape-font-specification:'Consolas, Normal';font-variant-ligatures:normal;font-variant-caps:normal;font-variant-numeric:normal;font-variant-east-asian:normal;text-align:center;text-anchor:middle;fill:#d8d8d8;fill-opacity:1;stroke:none;stroke-width:0.863251;stroke-dasharray:none;stroke-opacity:1"
         x="149.98665"
         y="56.200089"
         id="text12"><tspan
           sodipodi:role="line"
           id="tspan12"
           style="stroke-width:0.863251;fill:#d8d8d8;fill-opacity:1"
           x="149.98665"
           y="56.200089">&lt;  &gt;</tspan></text>
      <g
         id="g14"
         transform="translate(-0.26457303)"
         style="fill:#d8d8d8;fill-opacity:1">
        <circle
           style="fill:#d8d8d8;fill-opacity:1;stroke:none;stroke-width:1.40945;stroke-dasharray:none;stroke-opacity:1"
           id="path12"
           cx="135.65234"
           cy="47.772179"
           r="1.810897" />
        <circle
           style="fill:#d8d8d8;fill-opacity:1;stroke:none;stroke-width:1.40945;stroke-dasharray:none;stroke-opacity:1"
           id="circle12"
           cx="150.25122"
           cy="47.772179"
           r="1.810897" />
        <circle
           style="fill:#d8d8d8;fill-opacity:1;stroke:none;stroke-width:1.40945;stroke-dasharray:none;stroke-opacity:1"
           id="circle13"
           cx="164.8501"
           cy="47.772179"
           r="1.810897" />
      </g>
    </g>
  </g>
</svg>
