<?xml version="1.0" encoding="UTF-8" standalone="no"?>
<svg
   xml:space="preserve"
   width="2060"
   height="560"
   version="1.1"
   style="clip-rule:evenodd;fill-rule:evenodd;image-rendering:optimizeQuality;shape-rendering:geometricPrecision;text-rendering:geometricPrecision"
   viewBox="0 0 2060 560"
   id="svg44"
   sodipodi:docname="filebrowser.svg"
   inkscape:version="1.3.1 (91b66b0783, 2023-11-16)"
   inkscape:export-filename="/home/umarcor/filebrowser/logo/icon_raw.svg.png"
   inkscape:export-xdpi="96"
   inkscape:export-ydpi="96"
   xmlns:inkscape="http://www.inkscape.org/namespaces/inkscape"
   xmlns:sodipodi="http://sodipodi.sourceforge.net/DTD/sodipodi-0.dtd"
   xmlns="http://www.w3.org/2000/svg"
   xmlns:svg="http://www.w3.org/2000/svg"
   xmlns:rdf="http://www.w3.org/1999/02/22-rdf-syntax-ns#"
   xmlns:cc="http://creativecommons.org/ns#"
   xmlns:dc="http://purl.org/dc/elements/1.1/"><metadata
   id="metadata48"><rdf:RDF><cc:Work
       rdf:about=""><dc:format>image/svg+xml</dc:format><dc:type
         rdf:resource="http://purl.org/dc/dcmitype/StillImage" /></cc:Work></rdf:RDF></metadata><sodipodi:namedview
   pagecolor="#ffffff"
   bordercolor="#666666"
   borderopacity="1"
   objecttolerance="10"
   gridtolerance="10"
   guidetolerance="10"
   inkscape:pageopacity="0"
   inkscape:pageshadow="2"
   inkscape:window-width="1920"
   inkscape:window-height="1137"
   id="namedview46"
   showgrid="false"
   inkscape:zoom="0.33714286"
   inkscape:cx="1014.4068"
   inkscape:cy="280.29661"
   inkscape:window-x="-8"
   inkscape:window-y="-8"
   inkscape:window-maximized="1"
   inkscape:current-layer="svg44"
   inkscape:showpageshadow="2"
   inkscape:pagecheckerboard="0"
   inkscape:deskcolor="#d1d1d1" />
  <defs
   id="defs4">
    <style
   type="text/css"
   id="style2">
      <![CDATA[
       .fil1 {fill:#FEFEFE}
       .fil6 {fill:#006498}
       .fil7 {fill:#0EA5EB}
       .fil8 {fill:#2979FF}
       .fil3 {fill:#2BBCFF}
       .fil0 {fill:#455A64}
       .fil4 {fill:#53C6FC}
       .fil5 {fill:#BDEAFF}
       .fil2 {fill:#332C2B;fill-opacity:0.149020}
      ]]>
    </style>
  </defs>
  <g
   id="g85"
   transform="translate(-70,-70)"><path
     class="fil1"
     d="M 350,71 C 504,71 629,196 629,350 629,504 504,629 350,629 196,629 71,504 71,350 71,196 196,71 350,71 Z"
     id="path9"
     inkscape:connector-curvature="0"
     style="fill:#fefefe" /><path
     class="fil2"
     d="M 475,236 593,387 C 596,503 444,639 301,585 L 225,486 339,330 c 0,0 138,-95 136,-94 z"
     id="path11"
     inkscape:connector-curvature="0"
     style="fill:#332c2b;fill-opacity:0.14902" /><path
     class="fil3"
     d="m 231,211 h 208 l 38,24 v 246 c 0,5 -3,8 -8,8 H 231 c -5,0 -8,-3 -8,-8 V 219 c 0,-5 3,-8 8,-8 z"
     id="path13"
     inkscape:connector-curvature="0"
     style="fill:#2bbcff" /><path
     class="fil4"
     d="m 231,211 h 208 l 38,24 v 2 L 440,214 H 231 c -4,0 -7,3 -7,7 v 263 c -1,-1 -1,-2 -1,-3 V 219 c 0,-5 3,-8 8,-8 z"
     id="path15"
     inkscape:connector-curvature="0"
     style="fill:#53c6fc" /><polygon
     class="fil5"
     points="418,212 418,310 305,310 305,212 "
     id="polygon17"
     style="fill:#bdeaff" /><path
     class="fil5"
     d="m 255,363 h 189 c 3,0 5,2 5,4 V 483 H 250 V 367 c 0,-2 2,-4 5,-4 z"
     id="path19"
     inkscape:connector-curvature="0"
     style="fill:#bdeaff" /><polygon
     class="fil6"
     points="449,470 449,483 250,483 250,470 "
     id="polygon21"
     style="fill:#006498" /><path
     class="fil6"
     d="m 380,226 h 10 c 3,0 6,2 6,5 v 40 c 0,3 -3,6 -6,6 h -10 c -3,0 -6,-3 -6,-6 v -40 c 0,-3 3,-5 6,-5 z"
     id="path23"
     inkscape:connector-curvature="0"
     style="fill:#006498" /><path
     class="fil1"
     d="m 254,226 c 10,0 17,7 17,17 0,9 -7,16 -17,16 -9,0 -17,-7 -17,-16 0,-10 8,-17 17,-17 z"
     id="path25"
     inkscape:connector-curvature="0"
     style="fill:#fefefe" /><path
     class="fil6"
     d="m 267,448 h 165 c 2,0 3,1 3,3 v 0 c 0,1 -1,3 -3,3 H 267 c -2,0 -3,-2 -3,-3 v 0 c 0,-2 1,-3 3,-3 z"
     id="path27"
     inkscape:connector-curvature="0"
     style="fill:#006498" /><path
     class="fil6"
     d="m 267,415 h 165 c 2,0 3,1 3,3 v 0 c 0,1 -1,2 -3,2 H 267 c -2,0 -3,-1 -3,-2 v 0 c 0,-2 1,-3 3,-3 z"
     id="path29"
     inkscape:connector-curvature="0"
     style="fill:#006498" /><path
     class="fil6"
     d="m 267,381 h 165 c 2,0 3,2 3,3 v 0 c 0,2 -1,3 -3,3 H 267 c -2,0 -3,-1 -3,-3 v 0 c 0,-1 1,-3 3,-3 z"
     id="path31"
     inkscape:connector-curvature="0"
     style="fill:#006498" /><path
     class="fil1"
     d="m 236,472 c 3,0 5,2 5,5 0,2 -2,4 -5,4 -3,0 -5,-2 -5,-4 0,-3 2,-5 5,-5 z"
     id="path33"
     inkscape:connector-curvature="0"
     style="fill:#fefefe" /><path
     class="fil1"
     d="m 463,472 c 3,0 5,2 5,5 0,2 -2,4 -5,4 -3,0 -5,-2 -5,-4 0,-3 2,-5 5,-5 z"
     id="path35"
     inkscape:connector-curvature="0"
     style="fill:#fefefe" /><polygon
     class="fil6"
     points="284,212 284,310 305,310 305,212 "
     id="polygon37"
     style="fill:#006498" /><path
     class="fil7"
     d="m 477,479 v 2 c 0,5 -3,8 -8,8 H 231 c -5,0 -8,-3 -8,-8 v -2 c 0,4 3,8 8,8 h 238 c 5,0 8,-4 8,-8 z"
     id="path39"
     inkscape:connector-curvature="0"
     style="fill:#0ea5eb" /><path
     class="fil8"
     d="M 350,70 C 505,70 630,195 630,350 630,505 505,630 350,630 195,630 70,505 70,350 70,195 195,70 350,70 Z m 0,46 C 479,116 584,221 584,350 584,479 479,584 350,584 221,584 116,479 116,350 116,221 221,116 350,116 Z"
     id="path41"
     inkscape:connector-curvature="0"
     style="fill:#2979ff" /></g>
<path
   style="font-weight:900;font-size:215.466px;font-family:Arial;-inkscape-font-specification:'Arial, Heavy';fill:#2979ff;stroke-width:8.07998;stroke-linejoin:round"
   d="m 578.11534,202.07728 h 117.83297 v 33.14053 h -69.96333 v 26.93325 h 59.75815 v 31.14157 h -59.75815 v 63.0196 h -47.86964 z m 142.24123,0 h 42.81966 v 29.14262 h -42.81966 z m 0,42.50404 h 42.81966 v 111.73091 h -42.81966 z m 71.64665,-42.50404 h 42.92487 v 154.23495 h -42.92487 z m 194.31919,108.9955 h -85.84973 q 1.15728,10.31039 5.57602,15.36037 6.20727,7.25935 16.20203,7.25935 6.31248,0 11.99372,-3.15624 3.47186,-1.99895 7.46977,-7.04893 l 42.18841,3.89269 q -9.67914,16.83328 -23.35618,24.19784 -13.67704,7.25936 -39.24259,7.25936 -22.19889,0 -34.92906,-6.20727 -12.73017,-6.31249 -21.14681,-19.88432 -8.31143,-13.67704 -8.31143,-32.08844 0,-26.1968 16.72807,-42.39883 16.83328,-16.20203 46.39674,-16.20203 23.98742,0 37.87488,7.25935 13.88746,7.25935 21.14681,21.0416 7.25935,13.78225 7.25935,35.87593 z M 942.7663,290.55722 q -1.2625,-12.41455 -6.73332,-17.78015 -5.36561,-5.36561 -14.20308,-5.36561 -10.20518,0 -16.30724,8.10101 -3.8927,5.04999 -4.94478,15.04475 z m 138.0329,-88.47994 h 89.2164 q 22.3041,0 34.1926,11.04684 11.9937,11.04685 11.9937,27.35409 0,13.67704 -8.5219,23.46138 -5.6812,6.5229 -16.6228,10.31039 16.6228,3.9979 24.4082,13.78225 7.8906,9.67913 7.8906,24.40826 0,11.99371 -5.576,21.56764 -5.576,9.57393 -15.2551,15.14995 -5.9969,3.47187 -18.0958,5.04999 -16.0968,2.10416 -21.3572,2.10416 h -82.2727 z m 48.0801,60.49461 h 20.7259 q 11.1521,0 15.4656,-3.78749 4.4187,-3.8927 4.4187,-11.15205 0,-6.73331 -4.4187,-10.5208 -4.3135,-3.78749 -15.1499,-3.78749 h -21.0416 z m 0,60.59981 h 24.303 q 12.3093,0 17.3593,-4.31353 5.05,-4.41873 5.05,-11.78329 0,-6.83852 -5.05,-10.94164 -4.9448,-4.20832 -17.4645,-4.20832 h -24.1978 z m 116.9913,-78.59038 h 40.0842 v 18.30619 q 5.7865,-11.8885 11.8885,-16.30724 6.2073,-4.52394 15.2552,-4.52394 9.4687,0 20.726,5.89165 l -13.2562,30.51032 q -7.575,-3.15624 -11.9938,-3.15624 -8.4166,0 -13.0457,6.94373 -6.6282,9.78434 -6.6282,36.61238 v 37.45406 h -43.03 z m 93.4247,56.18108 q 0,-25.56555 17.2541,-42.08321 17.2541,-16.62286 46.6072,-16.62286 33.5613,0 50.7102,19.46348 13.7823,15.67599 13.7823,38.61134 0,25.77596 -17.1489,42.29362 -17.0437,16.41245 -47.2384,16.41245 -26.9333,0 -43.5561,-13.67704 -20.4104,-16.93849 -20.4104,-44.39778 z m 42.9249,-0.10521 q 0,14.93954 5.9968,22.09368 6.1021,7.15414 15.2552,7.15414 9.2583,0 15.1499,-7.04893 5.9969,-7.04894 5.9969,-22.61972 0,-14.51871 -5.9969,-21.56765 -5.9968,-7.15414 -14.8343,-7.15414 -9.3635,0 -15.4656,7.25935 -6.102,7.15415 -6.102,21.88327 z m 89.5319,-56.07587 h 41.452 l 17.9906,70.38416 22.7249,-70.38416 h 38.6113 l 23.5666,70.38416 17.9906,-70.38416 h 41.1363 l -41.1363,111.73091 h -38.0853 l -22.6197,-67.22792 -21.8833,67.22792 h -38.2957 z m 208.4172,80.79975 42.504,-3.9979 q 2.6302,7.57497 7.3646,10.83642 4.7343,3.26145 12.6249,3.26145 8.6271,0 13.3614,-3.68228 3.6823,-2.73541 3.6823,-6.83852 0,-4.62915 -4.8396,-7.15415 -3.4718,-1.78853 -18.4114,-4.41873 -22.3041,-3.8927 -31.0363,-7.15415 -8.6271,-3.36665 -14.6239,-11.25725 -5.8917,-7.8906 -5.8917,-17.99057 0,-11.04684 6.4177,-19.04265 6.4177,-7.99581 17.675,-11.88851 11.2572,-3.9979 30.1947,-3.9979 19.9895,0 29.4582,3.05103 9.5739,3.05103 15.8864,9.46872 6.4177,6.41769 10.626,17.35932 l -40.6103,3.99791 q -1.5781,-5.36561 -5.2604,-7.8906 -5.05,-3.36666 -12.2041,-3.36666 -7.2594,0 -10.626,2.6302 -3.2615,2.52499 -3.2615,6.20727 0,4.10311 4.2084,6.20727 4.2083,2.10416 18.3061,3.78749 21.3573,2.41979 31.7729,6.73332 10.4156,4.31352 15.8864,12.30933 5.576,7.99581 5.576,17.56974 0,9.67914 -5.8916,18.83223 -5.7865,9.1531 -18.4114,14.62392 -12.5198,5.36561 -34.1927,5.36561 -30.6155,0 -43.6613,-8.73227 -12.9406,-8.73226 -16.6228,-24.82909 z m 263.2304,-14.30829 H 1857.55 q 1.1573,10.31039 5.576,15.36037 6.2073,7.25935 16.202,7.25935 6.3125,0 11.9937,-3.15624 3.4719,-1.99895 7.4698,-7.04893 l 42.1884,3.89269 q -9.6791,16.83328 -23.3561,24.19784 -13.6771,7.25936 -39.2426,7.25936 -22.1989,0 -34.9291,-6.20727 -12.7302,-6.31249 -21.1468,-19.88432 -8.3114,-13.67704 -8.3114,-32.08844 0,-26.1968 16.728,-42.39883 16.8333,-16.20203 46.3968,-16.20203 23.9874,0 37.8749,7.25935 13.8874,7.25935 21.1468,21.0416 7.2593,13.78225 7.2593,35.87593 z m -43.5561,-20.51556 q -1.2625,-12.41455 -6.7333,-17.78015 -5.3656,-5.36561 -14.2031,-5.36561 -10.2052,0 -16.3072,8.10101 -3.8927,5.04999 -4.9448,15.04475 z m 63.6508,-45.9759 h 40.0843 v 18.30619 q 5.7864,-11.8885 11.8885,-16.30724 6.2072,-4.52394 15.2551,-4.52394 9.4688,0 20.726,5.89165 l -13.2562,30.51032 q -7.575,-3.15624 -11.9937,-3.15624 -8.4167,0 -13.0458,6.94373 -6.6281,9.78434 -6.6281,36.61238 v 37.45406 h -43.0301 z"
   id="text1"
   aria-label="File Browser" /></svg>
