<svg xmlns="http://www.w3.org/2000/svg" id="Layer_1" data-name="Layer 1" viewBox="0 0 290.73 124.95"><defs><style>      .cls-1 {        fill: #bdbdbd;      }      .cls-1, .cls-2, .cls-3, .cls-4, .cls-5, .cls-6, .cls-7, .cls-8, .cls-9, .cls-10, .cls-11, .cls-12, .cls-13, .cls-14, .cls-15, .cls-16, .cls-17 {        stroke-width: 0px;      }      .cls-2 {        fill: #3c434a;      }      .cls-3 {        fill: #788c9b;      }      .cls-4 {        fill: #d0d0d0;      }      .cls-5 {        fill: #b4b4b4;      }      .cls-6 {        fill: #383f46;      }      .cls-7 {        fill: #f4f4f4;      }      .cls-8 {        fill: none;      }      .cls-9 {        fill: #3a4248;      }      .cls-10 {        fill: #e1e1e1;      }      .cls-11 {        fill: #fcfcfd;      }      .cls-12 {        fill: #a7a7a7;      }      .cls-13 {        fill: #343c43;      }      .cls-14 {        fill: #777575;      }      .cls-15 {        fill: #e36f30;      }      .cls-16 {        fill: #4a5157;      }      .cls-17 {        fill: #fefefe;      }    </style></defs><path class="cls-17" d="M271.33,43.08c2.72-1.24,5.41-2.54,7.9-4.22,1.56-.73,2.88-1.84,4.31-2.78,2.49-1.64,4.72-3.54,6.25-6.12,1.73-2.92,1.09-5.69-1.64-7.77-2.23-1.7-4.82-2.55-7.5-3.19-2.74-.99-5.59-1.37-8.47-1.6-.22-.23-.5-.22-.78-.25-2.93-.25-5.86-.51-8.78-.77-3.01,0-6.01-.48-9.03-.32-2.47-.01-4.95-.06-7.42-.02-1.67.02-3.36-.23-5,.26-2.85.1-5.71.06-8.56.2-3.92.19-7.83.59-11.76.7-1.29.04-2.61.15-3.91.28-3.57.35-7.14.71-10.71,1.07-3.06.31-6.12.59-9.18.95-3.38.4-6.75.83-10.11,1.32-2.34.34-4.74.36-7.01,1.16-.28-.17-.56-.33-.83-.51-17.74-11.41-35.91-12.17-54.41-2.01-6.77,3.72-12.08,9.15-16.5,15.45-3.58.67-7.11,1.52-10.63,2.44-3.33.87-6.74,1.42-9.99,2.61-5.35,1.12-10.59,2.63-15.84,4.13-3.76,1.08-7.58,1.98-11.23,3.45-4.52,1.12-8.9,2.68-13.3,4.17-1.31.44-2.7.7-3.89,1.47-1.45.48-2.93.9-4.35,1.46-2.97,1.18-6.07,2.02-8.9,3.55-3.13,1.11-6.12,2.54-9.14,3.93-4.99,2.3-9.84,4.83-14.28,8.08-2.31,1.69-4.52,3.53-5.86,6.15-1.39,2.71-.88,5.21,1.47,7.16.75.62,1.59,1.17,2.47,1.61,3.99,2,8.3,2.79,12.67,3.33,1.5.54,3.09.55,4.65.67,3.7.29,7.42.43,11.13.64,4.88.2,9.77.08,14.66.06,9.23-.16,18.45-.69,27.63-1.67,2.34.07,4.64-.34,6.97-.54,4.27-.37,8.53-.79,12.76-1.43,3.26-.15,6.46-.74,9.69-1.17.12.2.25.4.35.6,9.89,19.38,29.16,30.21,50.81,27.85,18.6-2.03,31.93-12.04,40.34-28.67.65-1.29,1.29-2.61,1.71-4.36-3.15,3.53-6.52,6.27-10.28,8.54-8.79,5.3-18.4,8.06-28.56,9.12-12.32,1.28-24.34,0-35.97-4.35-5.65-2.11-10.95-4.9-15.52-8.92.42-.21.86-.29,1.33-.36,1.79-.24,3.56-.55,5.34-.84.34-.05.69-.16.65-.58-.05-.48-.45-.56-.84-.51-2.61.36-5.21.74-7.82,1.12-1.02-.94-2.04-1.89-3.06-2.83-.05-.05.01-.29-.17-.1.06.02.13.05.19.07-.09,1.05.72,1.83.84,2.82-.2.1-.4.26-.61.28-2.9.39-5.81.77-8.71,1.14-6.58.67-13.16,1.33-19.74,2-4.92.36-9.84.82-14.76,1.06-3.78.18-7.55.49-11.34.33-.43-.02-.84.07-1.22.27-4.88,0-9.77-.02-14.65-.03-2.01-.14-4.02-.25-6.02-.42-3.26-.28-6.52-.61-9.78-.91-.64-.11-1.29-.22-1.93-.33-3.87-.65-7.69-1.51-11.09-3.58-3.59-2.18-3.97-4.9-1.35-8.17,2.27-2.83,5.18-4.92,8.2-6.72,6.02-3.58,12.32-6.63,18.85-9.21,4.42-1.69,8.83-3.37,13.25-5.06,5.83-1.95,11.67-3.9,17.5-5.84,3-.56,5.84-1.65,8.77-2.45,5.99-1.64,11.98-3.29,17.97-4.93,4.33-1.07,8.64-2.21,12.98-3.18,2.16-.49,4.27-1.31,6.54-1.26-.78,1.49-1.6,2.97-2.35,4.47-.73,1.46-1.42,2.94-1.99,4.84,6-6.67,13.18-10.9,21.2-13.74,13.91-4.93,28.15-5.65,42.57-2.81,9.6,1.89,18.5,5.47,26.2,11.67,1.75,1.4,3.37,2.95,4.93,4.57-1.02-3.17-2.47-6.1-4.17-8.9-3.2-5.27-7.32-9.72-12.07-13.62.2-.44.55-.56,1.02-.61,5.05-.48,10.06-1.32,15.12-1.73,4.82-.39,9.61-1.15,14.43-1.61,4.92-.47,9.85-.84,14.78-1.13,4.81-.28,9.62-.4,14.43-.6,4.14-.02,8.28-.03,12.42-.05,3.01.08,6.02.15,9.03.23,1.19.25,2.4.15,3.61.26,1.97.18,3.93.63,5.93.47,2.73.54,5.46,1.09,8.19,1.63,1.4.53,2.81,1.03,4.19,1.61,5.68,2.38,6.4,5.93,2.14,10.31-2.38,2.45-5.27,4.2-8.04,6.11-2.63,1.41-5.27,2.81-7.9,4.22-2.7,1.06-5.32,2.3-7.91,3.62-.36.08-.75.1-1.08.24-2.55,1.02-5.1,2.03-7.64,3.09-2.23.93-4.59,1.5-6.74,2.64-2.79.61-5.4,1.82-8.15,2.56-2.98,1.01-5.92,2.15-9.01,2.81-1.52-2.83-3.7-4.48-7.1-4.27-1.87.11-3.33.96-4.79,2.31,0-3.16-.11-6.07.04-8.96.08-1.62-.75-1.54-1.86-1.53-1.08,0-1.89-.12-1.86,1.52.11,5.24.01,10.49,0,15.73-1.64.37-3.28.75-4.91,1.12-.03-1.5-.03-3-.1-4.5-.09-1.9-.93-3.42-2.53-4.47-2.87-1.87-7.54-1.62-10.2.51-.67.54-1.25,1.16-1.58,1.95-.27.64-.81,1.43,0,1.98.73.5,2.91-.05,3.22-.66.88-1.78,2.75-2.56,4.86-2.04,1.8.44,2.57,1.63,2.68,3.76.07,1.23-.28,1.64-1.55,1.57-2.39-.13-4.79-.08-7.06.87-2.71,1.13-3.95,3.44-3.41,6.34.53,2.85,2.43,4.4,5.38,4.58,2.64.17,4.69-.93,6.48-2.79.13.22.24.32.26.45q.37,2.01,2.38,2.01c.28,0,.56-.02.84,0,.66.04.75-.21.62-.85-.5-2.5-.4-5.03-.26-7.56,1.7-.11,3.27-.73,4.9-1.13.02,2.82.02,5.63.06,8.45,0,.38-.2.85.39,1.07,1.28.49,2.55-.15,2.86-1.46.05-.21.12-.41.24-.78.97,1.13,1.98,1.94,3.28,2.32,4.48,1.32,8.59-1.26,9.55-6.01.57-2.82.33-5.6-.36-8.36,3.01-.77,5.99-1.61,8.85-2.82,2.7-.67,5.3-1.62,7.9-2.58,2.1-.74,4.23-1.4,6.28-2.25,3.17-1.31,6.47-2.29,9.51-3.91,2.76-1.15,5.6-2.11,8.17-3.67ZM94.35,56.47c-.07-.8-.15-1.33-.16-1.87,0-1.98-1.5-.94-2.35-1.14-1.07-.26-.92.52-.91,1.18.05,7.79.1,15.58.14,23.36.01,2.32,0,2.26,2.27,2.34,1.08.04,1.33-.28,1.3-1.32-.07-2.89-.03-5.78-.03-8.8,4.39,4.76,11.55,2.82,13.7-2.32,1.36-3.24,1.44-6.57.14-9.87-1.33-3.39-4.16-5.21-7.78-5.11-2.6.08-4.65,1.23-6.31,3.54ZM106.44,116.79c-.03,4.46,3.44,8.03,7.94,8.15,4.23.11,7.95-3.57,8.02-7.94.07-4.33-3.5-7.98-7.89-8.04-4.38-.07-8.04,3.48-8.07,7.83ZM187.15,15.5c4.36,0,7.8-3.41,7.78-7.73C194.92,3.49,191.4,0,187.11,0c-4.27,0-7.74,3.54-7.71,7.85.03,4.23,3.49,7.64,7.75,7.65ZM121.01,68.44c-1.41-4.54-3.08-8.62-4.61-12.74-.84-2.26-.85-2.26-3.16-2.26q-1.7,0-1.08,1.53c2.12,5.2,4.22,10.41,6.38,15.6.43,1.04.41,1.93-.14,2.93-1.13,2.05-2.7,3.57-4.82,4.55-.29.14-.72.11-.74.68-.04,2.1,1,2.79,2.87,1.9,3.13-1.49,4.86-4.21,6.23-7.18,2.96-6.43,5.23-13.13,7.79-19.72.02-.05-.07-.14-.1-.22q-3.42-.24-4.55,2.95c-.22.62-.41,1.24-.62,1.86-1.11,3.27-2.23,6.53-3.45,10.12ZM157.24,63.64c1.6,0,3.19,0,4.79,0,2.15,0,2.19,0,2.05-2.12-.21-3.41-1.26-6.47-4.67-7.87-3.28-1.35-6.48-.85-9.2,1.52-3.66,3.2-4.35,10.19-1.49,14.23,2.51,3.54,9.63,4.96,13.64,2.68,1.1-.62.16-1.5.11-2.24-.06-.9-.71-.33-1.04-.22-1.49.51-3.02.64-4.57.62-3.65-.06-5.85-2.04-6.35-5.64-.1-.74.03-1,.82-.98,1.97.05,3.94.02,5.91.01ZM81.31,69.55c.04.76.12,1.23.07,1.69-.12,1.13.36,1.55,1.46,1.38.32-.05.66-.03.98,0,.62.05.76-.2.75-.82-.07-5.3-.09-10.6-.12-15.9-.01-2.54,0-2.48-2.51-2.47-.95,0-1.05.4-1.04,1.18.03,3.19.02,6.38,0,9.57,0,.65-.03,1.32-.15,1.96-.42,2.25-2.56,3.98-4.82,3.94-2.16-.04-3.48-1.29-3.97-3.79-.12-.64-.19-1.3-.19-1.95-.02-3,0-6.01,0-9.01,0-1.87,0-1.77-1.82-1.9-1.44-.1-1.91.3-1.85,1.81.13,2.9.02,5.82.05,8.72.01,1.03.08,2.06.22,3.08.58,4.14,3.26,6.26,7.42,5.93,2.3-.18,4.02-1.36,5.51-3.41ZM135.59,62.32h.11c0,2.01-.14,4.04.03,6.04.33,3.86,3.97,5.92,7.53,4.33,1.12-.5.34-1.48.4-2.22.08-.9-.63-.41-.98-.38-2.5.22-3.55-.57-3.62-3.07-.1-3.33-.02-6.66-.05-9.99,0-.73.34-.85.95-.84,1.08.03,2.16.01,3.24,0,.3,0,.62.08.79-.37.51-1.42-.1-2.38-1.57-2.38-.7,0-1.42-.07-2.11.02-1.12.15-1.36-.36-1.3-1.36.07-1.12.03-2.25,0-3.38,0-.34.13-.73-.55-.67-2.22.17-2.87.8-2.87,3.01,0,.14,0,.28,0,.42,0,1.93,0,1.98-1.92,1.94-.85-.02-1.05.21-1.12,1.07-.13,1.45.37,1.97,1.77,1.71,1.1-.2,1.35.33,1.3,1.34-.08,1.59-.02,3.19-.02,4.78ZM58.29,63.48h-.05c0,2.82.05,5.63-.01,8.45-.06,3.06-.57,5.45-4.46,6.06-1.2.19-.36,1.18-.38,1.8-.02.51-.1,1.17.84,1.05,3.48-.44,6.3-1.86,7.2-5.64.29-1.24.45-2.49.45-3.76,0-5.21,0-10.42,0-15.63,0-2.42,0-2.37-2.46-2.39-.95,0-1.16.31-1.14,1.2.05,2.96.02,5.91.02,8.87ZM185.63,58.65c0,4.27.02,8.53-.02,12.8,0,.91.23,1.32,1.17,1.19.32-.04.66-.05.98,0,1.29.23,1.53-.37,1.52-1.56-.05-8.01-.03-16.03-.03-24.04,0-2.32,0-2.25-2.29-2.34-1.18-.04-1.38.39-1.36,1.44.05,4.17.02,8.34.02,12.51ZM172.46,56.73c-.39-.96-.32-1.71-.28-2.44.04-.69-.2-.93-.87-.86-.46.05-.94.06-1.41,0-.8-.1-.88.28-.87.97.06,5.3.08,10.61.1,15.91,0,2.34,0,2.29,2.41,2.34,1.03.02,1.24-.31,1.22-1.27-.06-2.86-.03-5.73-.02-8.59.01-4.2,1.31-5.75,5.46-6.45.43-.07.56-.23.56-.61,0-.42,0-.85,0-1.27,0-1.52-.2-1.7-1.72-1.45-2.11.35-3.52,1.62-4.57,3.71ZM108.32,21.42c2.8.03,5.03-2.1,5.12-4.88.09-2.72-2.15-5-4.94-5.03-2.88-.03-5.13,2.17-5.12,5,.01,2.68,2.22,4.88,4.93,4.91ZM234.09,45.26c-1.18-1.89-2.15-3.41-3.09-4.94-.25-.41-.58-.61-1.05-.48-.44.12-.33.51-.33.82,0,1.83,0,3.65,0,5.48,0,.35-.1.8.47.84.66.05.6-.43.6-.85,0-1.37,0-2.73,0-4.1,1.22,1.45,2.16,2.94,3.08,4.44.21.35.46.58.9.52.56-.08.44-.52.44-.87.01-1.83,0-3.65,0-5.48,0-.37.04-.8-.5-.82-.7-.03-.53.51-.53.89-.02,1.38,0,2.76,0,4.55ZM237.5,43.3c-.03-.93-.08-2.09,1.16-2.6,1.08-.44,1.9-.07,2.36,1.06.11.28.52.26.76.11.34-.21.1-.5,0-.74-.49-1.1-1.46-1.43-2.54-1.39-1.29.05-2.27.69-2.57,2-.17.76-.21,1.59-.15,2.37.17,2.32,2.16,3.53,4.33,2.68,1.12-.44,1.58-1.47,1.14-2.91-.33-1.06-1.28-.29-1.92-.48-.27-.08-.58,0-.59.4-.01.42.31.41.58.39.57-.03.98,0,.96.79-.02.76-.33,1.1-1.05,1.21-1.61.23-2.45-.7-2.46-2.9ZM225.4,43.79c0,.75-.02,1.5,0,2.25.01.38-.17.95.52.92.66-.03.46-.6.47-.97.02-1.08.05-2.16,0-3.24-.06-1.28-.19-2.53,1.76-2.15.29.06.59-.04.55-.44-.03-.29-.27-.36-.51-.36-1.5,0-3,0-4.51,0-.3,0-.58.06-.56.45.02.41.36.41.61.36,1.71-.34,1.81.67,1.67,1.93-.05.42,0,.84,0,1.27Z"></path><path class="cls-15" d="M108.17,34.93c4.42-6.3,9.73-11.73,16.5-15.45,18.49-10.17,36.67-9.41,54.41,2.01.27.18.55.34.83.51.49.37.98.74,1.47,1.12,4.75,3.89,8.87,8.35,12.07,13.62,1.7,2.81,3.15,5.74,4.17,8.9-1.56-1.62-3.18-3.16-4.93-4.57-7.71-6.19-16.61-9.78-26.2-11.67-14.42-2.84-28.66-2.12-42.57,2.81-8.02,2.84-15.21,7.07-21.2,13.74.57-1.9,1.26-3.38,1.99-4.84.75-1.51,1.56-2.98,2.35-4.47,0,0-.05,0-.05,0,.19-.02.26-.14.27-.31.4-.39.7-.85.89-1.38Z"></path><path class="cls-15" d="M103.33,80.84c1.02.94,2.04,1.89,3.06,2.83.36.48.79.89,1.33,1.16,4.57,4.01,9.87,6.81,15.52,8.92,11.63,4.35,23.65,5.63,35.97,4.35,10.16-1.06,19.76-3.82,28.56-9.12,3.76-2.27,7.13-5.01,10.28-8.54-.41,1.75-1.06,3.07-1.71,4.36-8.41,16.63-21.74,26.64-40.34,28.67-21.65,2.37-40.91-8.47-50.81-27.85-.11-.21-.23-.4-.35-.6-.15-.49-.3-.99-.66-1.38-.13-.99-.93-1.77-.84-2.82l-.02.02Z"></path><path class="cls-13" d="M94.35,56.47c1.67-2.31,3.72-3.46,6.31-3.54,3.63-.11,6.45,1.71,7.78,5.11,1.29,3.29,1.22,6.63-.14,9.87-2.16,5.14-9.31,7.07-13.7,2.32,0,3.02-.05,5.91.03,8.8.03,1.04-.22,1.36-1.3,1.32-2.26-.08-2.25-.01-2.27-2.34-.04-7.79-.08-15.58-.14-23.36,0-.67-.16-1.44.91-1.18.85.21,2.34-.83,2.35,1.14,0,.53.09,1.07.16,1.87ZM94.42,62.95c.06.89.07,1.78.19,2.66.29,2.16,2.03,4.03,4.1,4.48,2.28.49,4.59-.37,5.7-2.37,1.68-3.02,1.82-6.19.12-9.24-1.9-3.4-6.48-3.57-8.81-.45-1.1,1.47-1.36,3.15-1.3,4.92Z"></path><path class="cls-3" d="M214.61,61.94c.02-5.24.11-10.49,0-15.73-.03-1.63.78-1.51,1.86-1.52,1.11-.01,1.94-.09,1.86,1.53-.15,2.89-.04,5.8-.04,8.96,1.46-1.34,2.92-2.19,4.79-2.31,3.4-.21,5.58,1.44,7.1,4.27.15.38.3.76.44,1.15.69,2.76.93,5.54.36,8.36-.96,4.75-5.07,7.32-9.55,6.01-1.3-.38-2.31-1.18-3.28-2.32-.11.38-.19.58-.24.78-.31,1.32-1.58,1.95-2.86,1.46-.58-.22-.38-.69-.39-1.07-.03-2.81-.04-5.63-.06-8.45,0-.38,0-.76,0-1.14ZM226.57,58.19c-1.01-2.07-2.85-2.92-5.07-2.35-2.17.56-3.29,2.21-3.16,4.7,0,.47,0,.94,0,1.41-.02,1.5-.03,2.99-.06,4.49,0,.49.13.91.38,1.32,1.07,1.81,2.69,2.54,4.73,2.33,1.92-.2,3.15-1.33,3.73-3.14.78-2.42.75-4.85-.04-7.27.03-.57-.22-1.05-.53-1.5Z"></path><path class="cls-14" d="M106.44,116.79c.03-4.35,3.69-7.89,8.07-7.83,4.39.07,7.96,3.71,7.89,8.04-.08,4.37-3.79,8.05-8.02,7.94-4.5-.12-7.97-3.69-7.94-8.15Z"></path><path class="cls-14" d="M187.15,15.5c-4.27,0-7.73-3.42-7.75-7.65C179.37,3.54,182.84,0,187.11,0c4.29,0,7.81,3.49,7.83,7.77.01,4.33-3.42,7.74-7.78,7.73Z"></path><path class="cls-3" d="M209.71,64.22c-.13,2.53-.24,5.06.26,7.56.13.63.04.89-.62.85-.28-.02-.56,0-.84,0q-2.01,0-2.38-2.01c-.02-.12-.13-.23-.26-.45-1.78,1.87-3.83,2.96-6.48,2.79-2.95-.19-4.85-1.74-5.38-4.58-.54-2.9.69-5.21,3.41-6.34,2.27-.95,4.67-1,7.06-.87,1.26.07,1.62-.33,1.55-1.57-.12-2.13-.88-3.32-2.68-3.76-2.11-.52-3.98.27-4.86,2.04-.3.61-2.49,1.17-3.22.66-.81-.55-.26-1.34,0-1.98.33-.79.91-1.41,1.58-1.95,2.66-2.13,7.33-2.38,10.2-.51,1.6,1.05,2.44,2.57,2.53,4.47.07,1.5.07,3,.1,4.5,0,.38,0,.77.01,1.15ZM200.78,69.88c1.16.08,2.29-.32,3.35-.98,1.82-1.15,2.47-2.82,1.94-4.85-.08-.28-.22-.41-.47-.39-2,.09-4.05-.36-5.97.54-1.49.7-2.37,2.24-2.07,3.64.28,1.31,1.38,2.03,3.23,2.04Z"></path><path class="cls-13" d="M121.01,68.44c1.22-3.58,2.33-6.85,3.45-10.12.21-.62.4-1.25.62-1.86q1.13-3.19,4.55-2.95c.04.07.12.16.1.22-2.56,6.59-4.83,13.29-7.79,19.72-1.37,2.97-3.1,5.69-6.23,7.18-1.87.89-2.92.19-2.87-1.9.01-.57.44-.54.74-.68,2.12-.98,3.69-2.5,4.82-4.55.55-1,.57-1.89.14-2.93-2.15-5.19-4.25-10.4-6.38-15.6q-.62-1.53,1.08-1.53c2.32,0,2.32,0,3.16,2.26,1.53,4.12,3.2,8.2,4.61,12.74Z"></path><path class="cls-13" d="M157.24,63.64c-1.97,0-3.94.03-5.91-.01-.79-.02-.92.25-.82.98.49,3.6,2.69,5.58,6.35,5.64,1.55.02,3.08-.11,4.57-.62.33-.11.98-.68,1.04.22.05.74.99,1.61-.11,2.24-4.01,2.27-11.13.85-13.64-2.68-2.86-4.03-2.17-11.03,1.49-14.23,2.72-2.38,5.92-2.88,9.2-1.52,3.4,1.41,4.45,4.46,4.67,7.87.13,2.12.1,2.12-2.05,2.12-1.6,0-3.19,0-4.79,0ZM155.53,61.15c1.41,0,2.82,0,4.23,0,.41,0,.8.1.83-.6.11-2.18-1.57-4.43-3.7-4.85-3.62-.72-5.71,2.06-6.28,4.79-.14.7.25.67.7.67,1.41,0,2.82,0,4.23,0Z"></path><path class="cls-13" d="M81.31,69.55c-1.49,2.05-3.22,3.22-5.51,3.41-4.16.33-6.83-1.79-7.42-5.93-.14-1.02-.21-2.05-.22-3.08-.03-2.91.08-5.82-.05-8.72-.07-1.51.4-1.91,1.85-1.81,1.81.13,1.82.03,1.82,1.9,0,3-.01,6.01,0,9.01,0,.65.07,1.31.19,1.95.49,2.51,1.81,3.75,3.97,3.79,2.27.04,4.41-1.69,4.82-3.94.12-.64.14-1.31.15-1.96.01-3.19.02-6.38,0-9.57,0-.78.09-1.17,1.04-1.18,2.51,0,2.5-.06,2.51,2.47.03,5.3.05,10.6.12,15.9,0,.63-.13.87-.75.82-.33-.02-.66-.05-.98,0-1.09.17-1.57-.25-1.46-1.38.05-.46-.04-.93-.07-1.69Z"></path><path class="cls-2" d="M135.59,62.32c0-1.59-.06-3.19.02-4.78.05-1.01-.2-1.54-1.3-1.34-1.4.26-1.89-.26-1.77-1.71.07-.87.27-1.09,1.12-1.07,1.92.04,1.92-.01,1.92-1.94,0-.14,0-.28,0-.42,0-2.21.65-2.84,2.87-3.01.68-.05.54.34.55.67.02,1.13.06,2.25,0,3.38-.06.99.18,1.5,1.3,1.36.69-.09,1.41-.02,2.11-.02,1.47,0,2.08.96,1.57,2.38-.16.45-.48.37-.79.37-1.08.01-2.16.03-3.24,0-.61-.02-.96.1-.95.84.03,3.33-.05,6.66.05,9.99.07,2.51,1.12,3.29,3.62,3.07.35-.03,1.06-.52.98.38-.07.74.72,1.72-.4,2.22-3.55,1.59-7.2-.47-7.53-4.33-.17-2-.03-4.03-.03-6.04h-.11Z"></path><path class="cls-6" d="M58.29,63.48c0-2.96.03-5.91-.02-8.87-.02-.89.19-1.21,1.14-1.2,2.46.03,2.46-.02,2.46,2.39,0,5.21,0,10.42,0,15.63,0,1.27-.15,2.52-.45,3.76-.9,3.77-3.72,5.2-7.2,5.64-.94.12-.86-.54-.84-1.05.02-.62-.82-1.62.38-1.8,3.9-.61,4.4-2.99,4.46-6.06.06-2.81.01-5.63.01-8.45h.05Z"></path><path class="cls-3" d="M185.63,58.65c0-4.17.03-8.34-.02-12.51-.01-1.05.18-1.48,1.36-1.44,2.29.08,2.29.01,2.29,2.34,0,8.01-.02,16.03.03,24.04,0,1.19-.23,1.79-1.52,1.56-.32-.06-.66-.05-.98,0-.94.13-1.18-.28-1.17-1.19.04-4.26.02-8.53.02-12.8Z"></path><path class="cls-9" d="M172.46,56.73c1.04-2.09,2.46-3.36,4.57-3.71,1.52-.25,1.71-.08,1.72,1.45,0,.42,0,.85,0,1.27,0,.38-.13.54-.56.61-4.15.7-5.44,2.25-5.46,6.45,0,2.86-.04,5.73.02,8.59.02.95-.19,1.29-1.22,1.27-2.41-.06-2.4,0-2.41-2.34-.02-5.3-.04-10.61-.1-15.91,0-.69.07-1.07.87-.97.46.06.94.05,1.41,0,.68-.07.91.17.87.86-.04.73-.12,1.48.28,2.44Z"></path><path class="cls-14" d="M108.32,21.42c-2.72-.03-4.92-2.22-4.93-4.91-.01-2.83,2.24-5.03,5.12-5,2.79.03,5.02,2.3,4.94,5.03-.09,2.78-2.33,4.91-5.12,4.88Z"></path><path class="cls-7" d="M181.39,23.1c-.49-.37-.98-.74-1.47-1.12,2.27-.8,4.67-.82,7.01-1.16,3.36-.49,6.74-.92,10.11-1.32,3.05-.36,6.12-.64,9.18-.95,3.57-.36,7.14-.73,10.71-1.07,1.3-.13,2.62-.24,3.91-.28,3.93-.11,7.84-.5,11.76-.7,2.86-.14,5.71-.11,8.56-.2,0,.37,0,.74.01,1.12-4.81.19-9.62.31-14.43.6-4.93.29-9.86.66-14.78,1.13-4.82.46-9.61,1.22-14.43,1.61-5.06.41-10.07,1.26-15.12,1.73-.46.04-.82.17-1.02.61Z"></path><path class="cls-12" d="M30.05,59.35c-6.52,2.58-12.83,5.63-18.85,9.21-3.02,1.8-5.94,3.89-8.2,6.72-2.62,3.27-2.24,5.99,1.35,8.17,3.4,2.07,7.22,2.93,11.09,3.58.65.11,1.29.22,1.93.33,0,.37,0,.74,0,1.1-4.37-.54-8.69-1.34-12.67-3.33-.87-.44-1.71-.99-2.47-1.61-2.36-1.94-2.86-4.45-1.47-7.16,1.34-2.62,3.55-4.46,5.86-6.15,4.44-3.25,9.29-5.78,14.28-8.08,3.02-1.39,6.01-2.82,9.14-3.93,0,.39,0,.77,0,1.16Z"></path><path class="cls-12" d="M280.64,18.99c2.68.65,5.27,1.49,7.5,3.2,2.73,2.08,3.37,4.85,1.64,7.77-1.53,2.58-3.75,4.48-6.25,6.12-1.43.94-2.74,2.05-4.31,2.78-.2-.29-.4-.58-.61-.87,2.77-1.92,5.67-3.67,8.04-6.11,4.26-4.38,3.54-7.93-2.14-10.31-1.38-.58-2.79-1.08-4.19-1.61.1-.32.2-.64.3-.97Z"></path><path class="cls-4" d="M47.82,88.72c.38-.2.78-.29,1.22-.27,3.79.15,7.57-.15,11.34-.33,4.93-.23,9.84-.7,14.76-1.06.1.37.2.73.3,1.1-9.18.98-18.4,1.51-27.63,1.67,0-.37,0-.73.01-1.1Z"></path><path class="cls-4" d="M60.49,47.55c3.64-1.47,7.46-2.37,11.23-3.45,5.25-1.51,10.49-3.01,15.84-4.13,0,.37-.01.73-.02,1.1-5.99,1.64-11.98,3.3-17.97,4.93-2.93.8-5.77,1.89-8.77,2.45-.1-.3-.21-.6-.31-.9Z"></path><path class="cls-10" d="M87.54,41.07c0-.37.01-.73.02-1.1,3.25-1.18,6.66-1.74,9.99-2.61,3.52-.92,7.05-1.77,10.63-2.44-.19.53-.49.98-.89,1.38-.09.1-.18.21-.27.31,0,0,.05,0,.05,0-2.27-.05-4.38.78-6.54,1.26-4.35.98-8.66,2.11-12.98,3.18Z"></path><path class="cls-10" d="M75.44,88.16c-.1-.37-.2-.73-.3-1.1,6.58-.67,13.16-1.33,19.74-2,.09.37.19.75.28,1.12-4.23.65-8.49,1.06-12.76,1.43-2.32.2-4.62.61-6.97.54Z"></path><path class="cls-16" d="M234.09,45.26c0-1.8,0-3.18,0-4.55,0-.38-.17-.92.53-.89.55.03.5.45.5.82,0,1.83,0,3.65,0,5.48,0,.35.12.79-.44.87-.44.06-.69-.17-.9-.52-.92-1.5-1.86-2.99-3.08-4.44,0,1.37,0,2.73,0,4.1,0,.42.06.9-.6.85-.57-.04-.47-.49-.47-.84,0-1.83,0-3.65,0-5.48,0-.31-.11-.7.33-.82.47-.13.79.07,1.05.48.94,1.53,1.91,3.05,3.09,4.94Z"></path><path class="cls-1" d="M60.49,47.55c.1.3.21.6.31.9-5.83,1.95-11.67,3.9-17.5,5.84,0-.37,0-.74,0-1.11,1.19-.77,2.58-1.02,3.89-1.47,4.4-1.49,8.78-3.05,13.3-4.17Z"></path><path class="cls-4" d="M263.16,46.75c-3.04,1.62-6.34,2.6-9.51,3.91-2.05.85-4.18,1.5-6.28,2.25,0-.37-.02-.74-.03-1.11,2.14-1.14,4.51-1.71,6.74-2.64,2.54-1.06,5.09-2.07,7.64-3.09.34-.13.72-.16,1.08-.24.07.33,0,.71.35.92Z"></path><path class="cls-5" d="M17.38,88.46c0-.37,0-.74,0-1.1,3.26.31,6.52.63,9.78.91,2,.17,4.01.28,6.02.42,0,.36-.01.72-.02,1.07-3.71-.2-7.42-.35-11.13-.64-1.55-.12-3.15-.13-4.65-.67Z"></path><path class="cls-2" d="M237.5,43.3c0,2.2.85,3.13,2.46,2.9.72-.1,1.04-.44,1.05-1.21.02-.78-.39-.82-.96-.79-.27.02-.59.03-.58-.39.01-.39.32-.48.59-.4.64.19,1.6-.58,1.92.48.44,1.44-.02,2.47-1.14,2.91-2.17.85-4.16-.36-4.33-2.68-.06-.79-.02-1.61.15-2.37.3-1.31,1.28-1.95,2.57-2,1.08-.04,2.05.28,2.54,1.39.1.23.34.53,0,.74-.24.15-.64.17-.76-.11-.46-1.13-1.28-1.5-2.36-1.06-1.24.5-1.19,1.66-1.16,2.6Z"></path><path class="cls-10" d="M241.17,17.42c0-.37,0-.74-.01-1.12,1.65-.49,3.33-.24,5-.26,2.47-.03,4.95.01,7.42.02,0,.44,0,.87,0,1.31-4.14.02-8.28.03-12.42.05Z"></path><path class="cls-5" d="M43.3,53.18c0,.37,0,.74,0,1.11-4.42,1.69-8.83,3.37-13.25,5.06,0-.39,0-.77,0-1.16,2.83-1.53,5.93-2.37,8.9-3.55,1.42-.56,2.9-.98,4.35-1.46Z"></path><path class="cls-1" d="M33.15,89.76c0-.36.01-.72.02-1.07,4.88,0,9.77.02,14.65.03,0,.37,0,.74-.01,1.1-4.89.02-9.77.14-14.66-.06Z"></path><path class="cls-16" d="M225.4,43.79c0-.42-.04-.85,0-1.27.14-1.26.04-2.27-1.67-1.93-.26.05-.59.05-.61-.36-.02-.39.26-.45.56-.45,1.5,0,3,0,4.51,0,.25,0,.49.07.51.36.04.4-.26.49-.55.44-1.95-.38-1.82.87-1.76,2.15.05,1.08.03,2.16,0,3.24,0,.38.19.94-.47.97-.69.03-.51-.54-.52-.92-.02-.75,0-1.5,0-2.25Z"></path><path class="cls-7" d="M95.16,86.18c-.09-.37-.19-.75-.28-1.12,2.9-.38,5.81-.75,8.71-1.14.21-.03.4-.19.61-.28.35.4.51.89.66,1.38-3.23.42-6.43,1.01-9.69,1.17Z"></path><path class="cls-4" d="M253.58,17.37c0-.44,0-.87,0-1.31,3.02-.16,6.01.31,9.03.32,0,.4,0,.81,0,1.21-3.01-.08-6.02-.15-9.03-.23Z"></path><path class="cls-1" d="M262.61,17.6c0-.4,0-.81,0-1.21,2.93.26,5.86.51,8.78.77.28.02.57.02.78.25,0,.31-.01.62-.02.93-2,.16-3.96-.29-5.93-.47-1.2-.11-2.42-.01-3.61-.26Z"></path><path class="cls-7" d="M230.62,58.3c-.15-.38-.3-.76-.44-1.15,3.09-.65,6.03-1.8,9.01-2.81.02.4-.13.84.28,1.14-2.86,1.21-5.85,2.05-8.85,2.82Z"></path><path class="cls-1" d="M263.16,46.75c-.36-.22-.28-.6-.35-.92,2.59-1.32,5.2-2.56,7.91-3.62.2.29.41.58.61.87-2.57,1.56-5.41,2.52-8.17,3.67Z"></path><path class="cls-5" d="M271.33,43.08c-.2-.29-.41-.58-.61-.87,2.63-1.41,5.27-2.81,7.9-4.22.2.29.4.58.61.87-2.49,1.68-5.18,2.98-7.9,4.22Z"></path><path class="cls-10" d="M239.47,55.49c-.41-.3-.26-.74-.28-1.14,2.75-.73,5.36-1.95,8.15-2.56,0,.37.02.74.03,1.11-2.6.96-5.2,1.92-7.9,2.58Z"></path><path class="cls-5" d="M272.15,18.33c0-.31.01-.62.02-.93,2.88.23,5.73.61,8.47,1.6-.1.32-.2.64-.3.97-2.73-.54-5.46-1.09-8.19-1.63Z"></path><path class="cls-7" d="M107.72,84.83c-.54-.28-.97-.68-1.33-1.16,2.61-.37,5.21-.75,7.82-1.12.39-.05.79.03.84.51.04.41-.32.52-.65.58-1.78.29-3.56.6-5.34.84-.47.06-.91.15-1.33.36Z"></path><path class="cls-7" d="M209.71,64.22c0-.38,0-.77-.01-1.15,1.64-.37,3.28-.75,4.91-1.12,0,.38,0,.76,0,1.14-1.63.41-3.21,1.02-4.9,1.13Z"></path><path class="cls-15" d="M103.35,80.82c-.06-.02-.13-.05-.19-.07.19-.2.12.05.17.1,0,0,.02-.02.02-.02Z"></path><path class="cls-17" d="M107.01,36.62c.09-.1.18-.21.27-.31-.01.17-.08.29-.27.31Z"></path><path class="cls-8" d="M94.42,62.95c-.06-1.78.21-3.45,1.3-4.92,2.33-3.12,6.92-2.95,8.81.45,1.7,3.05,1.57,6.22-.12,9.24-1.11,2-3.42,2.86-5.7,2.37-2.07-.44-3.82-2.32-4.1-4.48-.12-.88-.13-1.77-.19-2.66Z"></path><path class="cls-17" d="M227.09,59.69c.79,2.42.82,4.85.04,7.27-.58,1.81-1.81,2.94-3.73,3.14-2.04.21-3.66-.53-4.73-2.33-.25-.41-.39-.84-.38-1.32.03-1.5.04-2.99.06-4.49.94-.24,1.89-.48,2.83-.72,1.98-.5,3.87-1.32,5.92-1.54Z"></path><path class="cls-11" d="M218.34,60.54c-.13-2.48.99-4.13,3.16-4.7,2.22-.57,4.06.28,5.07,2.35-2.65,1.12-5.37,1.97-8.23,2.35Z"></path><path class="cls-7" d="M218.34,60.54c2.86-.38,5.58-1.22,8.23-2.35.31.45.56.92.53,1.5-2.05.23-3.94,1.04-5.92,1.54-.94.24-1.89.48-2.83.72,0-.47,0-.94,0-1.41Z"></path><path class="cls-11" d="M200.78,69.88c-1.85,0-2.95-.73-3.23-2.04-.3-1.4.58-2.94,2.07-3.64,1.92-.9,3.97-.45,5.97-.54.25-.01.4.11.47.39.54,2.02-.11,3.69-1.94,4.85-1.05.67-2.19,1.06-3.35.98Z"></path><path class="cls-8" d="M155.53,61.15c-1.41,0-2.82,0-4.23,0-.45,0-.84.03-.7-.67.57-2.73,2.66-5.51,6.28-4.79,2.13.43,3.81,2.68,3.7,4.85-.03.7-.42.6-.83.6-1.41,0-2.82,0-4.23,0Z"></path></svg>